<svg version="1.1" id="Layer_1" xmlns="http://www.w3.org/2000/svg" xmlns:xlink="http://www.w3.org/1999/xlink" x="0px" y="0px"
	 width="100%" viewBox="0 0 500 500" enable-background="new 0 0 500 500" xml:space="preserve">
<path fill="#121212" opacity="1.000000" stroke="none" 
	d="
M320.000000,501.000000 
	C214.666687,501.000000 109.833359,500.978546 5.000181,501.095428 
	C1.576323,501.099243 0.903034,500.423889 0.905299,497.000031 
	C1.013776,333.000122 1.013757,169.000137 0.905338,5.000257 
	C0.903075,1.576978 1.575764,0.903020 4.999866,0.905285 
	C168.999756,1.013775 332.999725,1.013760 496.999634,0.905354 
	C500.422638,0.903091 501.096985,1.575411 501.094727,4.999747 
	C500.986206,168.999634 500.986237,332.999603 501.094604,496.999512 
	C501.096893,500.422272 500.425995,501.104889 497.000214,501.097046 
	C438.167053,500.962036 379.333466,501.000000 320.000000,501.000000 
z"/>
<path fill="#161E34" opacity="1.000000" stroke="none" 
	d="
M159.904327,358.016235 
	C156.200546,358.804352 154.935150,357.833313 154.946854,354.034271 
	C155.080170,310.771240 155.033356,267.507629 155.033508,224.244202 
	C155.033615,191.268982 155.023926,158.293762 155.053268,125.318565 
	C155.054871,123.518661 154.608398,121.660461 155.682953,119.582352 
	C156.645386,118.342415 157.637527,118.461655 158.649704,118.462929 
	C188.051529,118.500061 217.453384,118.457565 246.855255,118.487724 
	C257.486481,118.498627 268.117828,118.503792 279.221191,118.500748 
	C282.092346,118.627945 284.578491,118.063828 287.212158,119.632980 
	C289.128632,120.203377 290.657532,120.542992 292.575684,120.929909 
	C293.572693,120.363907 294.324158,120.465538 295.405090,120.731888 
	C296.581024,121.209793 297.424683,121.509460 298.589142,121.906982 
	C299.861603,121.235504 300.703033,121.506027 301.676270,122.596886 
	C315.267609,126.938133 326.604004,134.017899 336.467377,144.132187 
	C342.985443,150.816086 347.935944,158.408737 352.059601,166.429535 
	C355.593781,173.303680 356.989105,181.205978 358.253693,188.932831 
	C358.501160,190.445053 358.883057,191.849091 359.926331,193.418976 
	C358.696777,198.159317 360.289734,202.714905 359.222839,207.552887 
	C357.831421,215.663910 356.700775,223.387146 353.912872,231.077759 
	C353.419983,232.338776 353.284332,233.408752 352.302185,234.420990 
	C349.324188,242.661331 344.554169,249.851303 339.361389,256.037872 
	C334.649231,261.651855 329.076080,267.559021 321.327332,270.475708 
	C320.884094,270.951416 320.662384,271.293671 320.186401,271.830872 
	C319.976807,272.055206 319.992249,271.985657 320.027283,271.992157 
	C319.803223,272.196838 319.563965,272.416534 319.194214,272.849854 
	C319.043915,273.041931 319.000000,273.000000 319.021790,273.020630 
	C318.782043,273.220459 318.546204,273.428802 318.190735,273.852722 
	C318.045319,274.039215 318.001801,274.009338 318.017639,274.030914 
	C317.802765,274.151855 317.571991,274.251221 317.018799,274.155579 
	C312.138519,276.196594 307.777802,278.950409 302.280762,279.411224 
	C301.664917,280.623505 300.502441,280.431519 299.349152,280.951477 
	C297.177673,281.279022 295.347809,281.494476 293.259399,281.852417 
	C291.581665,282.607544 290.188446,283.298798 288.292480,283.216675 
	C283.925293,283.349182 279.707825,283.106445 275.875732,284.206329 
	C270.541992,285.737213 269.616333,282.938812 269.203766,278.922180 
	C269.120636,278.113068 269.147430,277.292633 269.171204,276.049377 
	C269.460297,275.354950 269.538300,275.047150 269.312103,274.495575 
	C269.171356,274.293182 269.064209,273.845947 269.039642,273.617340 
	C268.877747,273.092163 268.740417,272.795593 268.809937,272.054565 
	C269.016785,271.610107 269.060760,271.143127 269.111206,270.914062 
	C269.789581,269.470276 269.416290,268.176300 269.318787,266.627808 
	C269.177673,266.340332 269.069580,265.863129 269.043427,265.619873 
	C268.803375,265.109314 268.589355,264.842010 268.697754,264.174805 
	C270.789032,260.465576 268.526764,256.345642 271.519897,253.117096 
	C274.979370,251.566254 278.200562,252.806488 281.771179,252.772247 
	C292.798065,251.728683 302.203644,248.034988 309.641785,239.989792 
	C314.064484,235.206100 319.041687,231.034729 322.101562,224.971436 
	C323.615753,221.971039 324.653198,218.836700 325.574554,215.786270 
	C330.047577,200.976791 328.277863,186.459198 319.917328,173.647476 
	C314.029846,164.625504 306.292664,157.091843 295.358002,153.150253 
	C290.409576,151.366516 285.342560,151.857208 280.221130,149.973633 
	C276.412262,149.069244 272.962524,149.630569 269.205994,149.796295 
	C268.878815,150.024246 268.712250,150.060165 268.634766,150.024689 
	C268.204742,150.125137 267.852173,150.261032 266.970825,150.192856 
	C266.251770,150.070480 266.053986,150.097794 265.703125,150.029999 
	C265.204895,150.125168 264.852203,150.261063 263.969452,150.195923 
	C263.439362,149.994904 263.500000,149.940872 263.530273,149.967972 
	C263.206665,150.129028 262.852814,150.262985 261.969116,150.193634 
	C261.439270,149.990326 261.296204,150.064331 261.217468,150.047424 
	C253.325577,148.864075 245.470047,149.760849 237.251602,149.788391 
	C236.865891,150.028870 236.706055,150.063385 236.632874,150.026886 
	C236.206390,150.125916 235.853058,150.261429 234.969833,150.193466 
	C234.250656,150.072510 234.053696,150.100021 233.704224,150.031311 
	C233.206314,150.125717 232.853271,150.261337 231.969727,150.195801 
	C231.439270,149.994675 231.499954,149.940536 231.530289,149.967621 
	C231.207001,150.128784 230.853363,150.262863 229.970306,150.193176 
	C229.440872,149.989395 229.290482,150.061737 229.208893,150.044235 
	C221.313675,148.868744 213.458511,149.757339 205.240112,149.790710 
	C204.854630,150.031555 204.700119,150.065002 204.630310,150.027924 
	C204.206848,150.126205 203.853195,150.261566 202.969055,150.193924 
	C202.250122,150.074295 202.053833,150.102158 201.705368,150.032867 
	C201.207779,150.126480 200.854507,150.261719 199.970428,150.196289 
	C199.439651,149.995651 199.500015,149.941803 199.530136,149.968781 
	C199.206436,150.129501 198.852585,150.263214 197.969040,150.193665 
	C197.439316,149.990387 197.298599,150.064392 197.220901,150.047592 
	C194.400253,148.948196 191.553375,149.693466 188.424194,149.753220 
	C186.487976,156.346207 187.419159,162.886734 187.177795,169.340561 
	C186.464951,188.401230 188.144714,207.474625 187.350967,226.552490 
	C187.311462,227.501831 187.736847,228.470490 187.948639,229.787140 
	C187.689728,231.521683 187.483719,232.906128 187.233337,234.595398 
	C187.310013,252.845383 187.724777,270.809570 187.828781,288.775543 
	C187.901337,301.307190 187.606293,313.842407 187.365982,326.373932 
	C187.184219,335.853302 182.828400,343.823853 176.578506,350.319672 
	C173.137161,353.896454 167.729034,355.573273 162.267853,356.845093 
	C161.427963,357.446198 160.831253,357.741699 159.904327,358.016235 
z"/>
<path fill="#054FF3" opacity="1.000000" stroke="none" 
	d="
M317.113037,326.228363 
	C317.516663,326.107513 317.512482,326.073059 317.515839,326.098083 
	C317.846680,325.949768 318.174164,325.776428 318.991882,325.864990 
	C319.482086,326.126892 319.532776,326.060089 319.501038,326.084961 
	C320.482178,326.386444 321.492493,326.694672 322.788818,326.146790 
	C323.022888,325.935211 323.008179,326.001770 322.975220,325.993103 
	C323.213196,325.884277 323.484100,325.784180 324.118774,325.919312 
	C324.482574,326.154541 324.523712,326.063873 324.500610,326.102905 
	C325.805969,326.528809 327.152466,326.619965 328.772156,326.161133 
	C329.025635,325.933258 329.006653,326.000488 328.973145,325.990753 
	C329.209229,325.879639 329.478821,325.778259 330.121063,325.895569 
	C330.493683,326.114258 330.528656,326.060822 330.501892,326.077148 
	C332.224823,326.656219 333.998260,326.624786 336.154053,326.205261 
	C336.524933,326.105225 336.481995,326.074982 336.500732,326.098938 
	C336.846985,325.949646 337.174500,325.776367 337.991943,325.865540 
	C338.481842,326.127960 338.529266,326.045929 338.494995,326.078125 
	C339.770020,326.356293 341.102173,326.345520 342.748840,326.394287 
	C343.074738,326.325806 343.466248,326.251007 343.665375,326.259216 
	C344.028625,326.068085 344.192749,325.868744 344.708099,325.832703 
	C345.059326,325.996002 344.983429,326.015289 344.972198,325.977783 
	C345.253845,326.272186 345.582031,326.564453 346.261780,326.914337 
	C347.930878,327.461823 347.840881,328.250946 347.139282,329.241272 
	C344.620941,332.796082 342.357880,336.570709 339.510132,339.836548 
	C338.109985,341.442261 337.301056,343.252869 335.819885,344.939026 
	C334.811737,345.255493 334.507172,345.809265 334.210663,346.770996 
	C334.027618,347.047516 334.000183,347.000000 334.025696,347.010101 
	C333.786530,347.214905 333.543884,347.434113 333.167114,347.867218 
	C333.010956,348.056671 332.999054,347.998199 333.028503,348.002930 
	C332.196411,348.651245 331.825653,349.620636 331.208710,350.795502 
	C331.039764,351.052277 330.999390,351.005188 331.028656,351.015411 
	C330.786652,351.215820 330.540588,351.434418 330.163391,351.872925 
	C330.006989,352.064453 329.998444,351.997955 330.031952,351.996765 
	C329.230194,353.223572 327.953827,354.115997 327.183105,355.794922 
	C326.994263,356.053192 326.985565,355.987915 327.018250,355.984070 
	C326.799591,356.206421 326.554657,356.439423 326.126831,356.847992 
	C325.938263,357.017578 325.948151,356.942230 325.986145,356.941162 
	C324.966309,357.928345 323.619965,357.282410 322.073242,357.657715 
	C321.707458,357.742279 321.535522,357.809052 321.443542,357.802429 
	C321.065735,358.067291 320.779877,358.338806 320.053284,358.216064 
	C319.612488,357.821869 319.427002,357.848602 319.341431,357.810364 
	C315.680939,357.203064 312.086792,357.581848 308.102386,357.669922 
	C307.703888,357.785583 307.563080,357.857544 307.485474,357.842346 
	C307.104919,358.017029 306.801941,358.206970 306.043335,358.113861 
	C305.587708,357.830841 305.452179,357.862976 305.392548,357.826965 
	C304.968964,357.688995 304.598511,357.642120 303.946960,357.727814 
	C303.673462,357.796326 303.549652,357.870819 303.479309,357.854431 
	C303.106323,358.095551 302.803711,358.353180 302.047852,358.223511 
	C301.594635,357.836304 301.201691,357.886261 301.201691,357.886261 
	C301.201691,357.886261 300.805603,357.885864 300.609253,357.859985 
	C300.108368,358.021698 299.803772,358.209290 299.041840,358.116272 
	C298.584473,357.835663 298.426849,357.869629 298.354950,357.833130 
	C295.687469,357.215424 293.065430,357.556274 290.075592,357.684204 
	C289.698456,357.796478 289.560638,357.868286 289.484619,357.852264 
	C289.105774,358.094391 288.802948,358.352539 288.045227,358.224304 
	C287.590302,357.837891 287.430847,357.871216 287.357788,357.835266 
	C283.706909,357.170258 280.104889,357.598663 276.115784,357.673401 
	C275.717865,357.793976 275.572113,357.867859 275.492188,357.850952 
	C275.108093,358.021667 274.803925,358.209259 274.043396,358.115662 
	C273.587006,357.834473 273.443329,357.867645 273.379883,357.830078 
	C272.957703,357.684448 272.591278,357.640564 271.946228,357.727234 
	C271.675262,357.793823 271.549744,357.868469 271.478516,357.852478 
	C271.104919,358.094574 270.802460,358.352570 270.046509,358.223633 
	C269.592896,357.836578 269.201202,357.886047 269.201202,357.886047 
	C269.201202,357.886047 268.806396,357.885559 268.610687,357.859741 
	C268.110077,358.021576 267.805176,358.209229 267.042969,358.115356 
	C266.585663,357.833832 266.428131,357.867615 266.356262,357.831238 
	C263.691895,357.215881 261.072632,357.559479 258.086487,357.680237 
	C257.709869,357.792480 257.564331,357.865601 257.484528,357.849365 
	C257.103180,358.092255 256.801636,358.351379 256.050140,358.219086 
	C255.600174,357.827667 255.447220,357.855682 255.377686,357.820923 
	C247.418747,357.423187 239.579544,357.249268 232.075714,353.931580 
	C229.373550,352.736847 228.070831,349.999420 224.895126,349.111877 
	C219.832718,344.057617 217.257751,338.436554 217.012848,331.476257 
	C216.413834,314.452118 216.726883,297.410431 216.692307,280.400635 
	C216.661514,265.247345 216.769699,250.043854 216.894806,234.871002 
	C216.984543,223.987564 217.301651,213.092651 217.206177,201.763275 
	C219.458389,199.471222 222.067307,200.443161 224.388489,200.464371 
	C231.816498,200.532181 239.244797,200.342728 247.152191,200.512695 
	C247.950867,200.562973 248.268768,200.605728 248.740997,201.104233 
	C248.986908,201.761368 249.018860,201.971802 248.947327,202.346481 
	C249.067963,202.834335 249.232452,203.167038 249.150848,203.999084 
	C248.904755,204.498444 248.948166,204.506927 248.938324,204.487152 
	C248.096298,209.194839 248.538925,213.947586 248.792206,219.115845 
	C248.938004,219.538025 248.944672,219.504532 248.927734,219.502365 
	C249.072845,219.833374 249.234894,220.166534 249.154221,220.999634 
	C248.911499,221.499573 248.944626,221.493851 248.941635,221.477325 
	C248.140778,224.531570 248.491928,227.635559 248.805649,231.137314 
	C248.940689,231.540070 248.943832,231.508179 248.928391,231.503937 
	C249.074280,231.833115 249.235611,232.166534 249.154755,233.000000 
	C248.998062,233.716171 249.026520,233.939590 248.955109,234.335083 
	C249.073822,234.833221 249.235382,235.166565 249.154541,235.999863 
	C248.912140,236.499832 248.945297,236.494781 248.942337,236.478271 
	C248.084824,241.190247 248.543732,245.945724 248.792847,251.116196 
	C248.939102,251.538498 248.944534,251.505615 248.928101,251.502808 
	C249.073456,251.833282 249.235168,252.166595 249.154343,252.999863 
	C248.911743,253.499832 248.944366,253.493469 248.941711,253.477081 
	C248.139954,256.531067 248.492996,259.634888 248.804352,263.136475 
	C248.938858,263.539368 248.943680,263.506683 248.927521,263.503296 
	C249.073227,263.833282 249.235077,264.166656 249.153854,265.000000 
	C248.997742,265.715912 249.026688,265.939423 248.954010,266.335266 
	C249.072586,266.833282 249.234756,267.166534 249.153595,267.999634 
	C248.910233,268.499481 248.945541,268.497223 248.941254,268.480042 
	C248.087082,273.190674 248.543701,277.945190 248.791000,283.114929 
	C248.936462,283.537384 248.944672,283.503143 248.927124,283.501709 
	C249.072021,283.833466 249.234512,284.166656 249.153290,284.999695 
	C248.909653,285.499512 248.944443,285.495697 248.940430,285.478668 
	C248.142624,288.532043 248.491913,291.635315 248.803741,295.136658 
	C248.937744,295.539642 248.942307,295.506897 248.926208,295.503204 
	C249.072372,295.832977 249.234680,296.166412 249.153503,297.000061 
	C248.997589,297.716064 249.026764,297.939514 248.953857,298.335266 
	C249.072403,298.833313 249.234665,299.166595 249.153671,299.999939 
	C248.910400,300.499939 248.944717,300.496063 248.941040,300.479187 
	C248.086090,305.189331 248.545731,309.943390 248.788239,315.112701 
	C248.932693,315.535431 248.944672,315.499390 248.925690,315.499725 
	C249.070114,315.833160 249.233521,316.166260 249.153214,316.999695 
	C248.909485,317.500000 248.930054,317.477173 248.934875,317.462585 
	C248.774170,318.247833 248.221756,319.016541 248.799316,320.183533 
	C250.712631,321.829590 250.391693,324.956329 253.284790,325.860291 
	C253.835098,325.935760 254.168198,325.769440 255.004669,325.844788 
	C255.508072,326.086517 255.473145,326.078308 255.459900,326.066223 
	C256.258118,326.229614 257.041840,326.794708 258.220886,326.161224 
	C258.535736,326.093109 258.481995,326.057800 258.495789,326.086914 
	C258.839630,325.945068 259.169678,325.774109 259.994904,325.859406 
	C260.490082,326.115692 260.526062,326.057404 260.497894,326.076202 
	C261.588898,326.421204 262.708649,326.735260 264.202789,326.166138 
	C264.540314,326.080231 264.480774,326.037415 264.498108,326.069824 
	C264.763275,325.958984 265.011139,325.815735 265.658936,325.828857 
	C266.058868,325.985199 265.989777,326.007721 265.977661,325.973450 
	C270.386353,327.238678 274.901947,326.027374 279.694122,326.188110 
	C280.032196,325.931366 280.004059,326.000122 279.969604,325.986267 
	C280.205841,325.873322 280.476532,325.774200 281.125000,325.885559 
	C281.502747,326.096039 281.520721,326.044342 281.499512,326.061218 
	C284.207947,326.870331 286.979187,326.317810 290.131104,326.210571 
	C290.529388,326.087524 290.475494,326.062683 290.494476,326.086365 
	C290.842224,325.941010 291.171021,325.772125 291.993011,325.856445 
	C292.486237,326.109802 292.524506,326.065704 292.498840,326.076935 
	C296.196686,326.777039 299.945038,326.448334 304.102478,326.233765 
	C304.517517,326.106110 304.493896,326.085938 304.504639,326.105347 
	C304.761139,325.975708 305.006866,325.826599 305.655334,325.831390 
	C306.058075,325.985291 305.989014,326.008850 305.976318,325.974640 
	C309.516541,326.839355 313.120941,326.384155 317.113037,326.228363 
z"/>
<path fill="#DADAE2" opacity="1.000000" stroke="none" 
	d="
M281.277283,118.745758 
	C239.601761,118.997002 198.227737,119.014084 156.387848,119.142273 
	C156.257370,118.347801 156.550537,117.282417 157.790039,117.432198 
	C167.751938,118.636009 177.760696,117.005646 187.636932,117.598717 
	C196.762558,118.146713 205.834106,117.554779 214.928360,117.935951 
	C224.524521,118.338165 234.160080,117.695930 243.778259,117.703697 
	C255.907913,117.713493 268.037415,117.919418 280.560913,118.056129 
	C281.162811,118.218216 281.370789,118.364914 281.277283,118.745758 
z"/>
<path fill="#7394D8" opacity="1.000000" stroke="none" 
	d="
M224.760040,349.221069 
	C228.133636,348.690094 229.590576,352.198334 232.416168,353.500702 
	C239.533752,356.781311 247.043381,356.861115 254.931030,357.566223 
	C246.933090,358.310364 238.786957,358.225525 230.899948,354.237366 
	C228.376907,352.961517 227.122818,350.848877 224.760040,349.221069 
z"/>
<path fill="#D8EDFF" opacity="1.000000" stroke="none" 
	d="
M248.272675,200.946045 
	C238.091293,201.154556 228.134506,201.145142 217.740265,201.229950 
	C219.416962,198.174927 222.643845,200.373428 225.289261,199.728043 
	C226.458939,199.442673 227.812271,200.005508 229.085464,200.032791 
	C235.128967,200.162354 241.181503,199.407715 247.676422,200.219452 
	C248.255081,200.388306 248.376175,200.558212 248.272675,200.946045 
z"/>
<path fill="#9CA2AA" opacity="1.000000" stroke="none" 
	d="
M205.333466,149.983124 
	C208.519547,147.960800 212.486084,149.307724 216.301529,149.113647 
	C220.411285,148.904587 224.546661,149.199478 228.899094,149.650635 
	C221.355637,149.996048 213.583969,149.965378 205.333466,149.983124 
z"/>
<path fill="#9CA2AA" opacity="1.000000" stroke="none" 
	d="
M237.343750,149.979706 
	C240.533356,147.956512 244.501114,149.311615 248.318405,149.116653 
	C252.427750,148.906769 256.562775,149.199127 260.912659,149.651443 
	C253.366364,149.997192 245.593979,149.963867 237.343750,149.979706 
z"/>
<path fill="#A4BCF0" opacity="1.000000" stroke="none" 
	d="
M279.637207,325.989258 
	C275.593567,328.071472 270.963287,326.678101 266.186859,326.304749 
	C268.781128,325.893555 272.524750,326.952240 274.197418,325.546600 
	C276.785583,323.371613 277.635864,325.893768 279.637207,325.989258 
z"/>
<path fill="#F1F3F8" opacity="1.000000" stroke="none" 
	d="
M359.382263,207.883347 
	C359.091400,203.349014 359.172394,198.746811 359.661957,193.944443 
	C359.456970,198.423248 361.383636,203.159348 359.382263,207.883347 
z"/>
<path fill="#A4BCF0" opacity="1.000000" stroke="none" 
	d="
M317.074738,326.101685 
	C313.882385,327.659424 310.134735,326.866333 306.189148,326.292419 
	C307.051819,326.175781 307.907654,326.120758 307.950928,324.657135 
	C307.964966,324.183289 308.477844,323.055023 308.612244,323.485107 
	C310.109619,328.277557 314.226990,324.539093 317.074738,326.101685 
z"/>
<path fill="#9FC4FE" opacity="1.000000" stroke="none" 
	d="
M248.936172,315.026306 
	C247.026535,310.803955 248.220062,305.930481 248.604584,300.785828 
	C248.938126,305.147278 248.938889,309.832214 248.936172,315.026306 
z"/>
<path fill="#9FC4FE" opacity="1.000000" stroke="none" 
	d="
M248.940155,283.029114 
	C247.029327,278.806305 248.234833,273.932373 248.605713,268.787415 
	C248.939240,273.148895 248.941528,277.834869 248.940155,283.029114 
z"/>
<path fill="#9FC4FE" opacity="1.000000" stroke="none" 
	d="
M248.942993,251.030807 
	C246.987823,246.806122 248.229980,241.924637 248.602142,236.780640 
	C248.941864,241.148895 248.944366,245.835999 248.942993,251.030807 
z"/>
<path fill="#9FC4FE" opacity="1.000000" stroke="none" 
	d="
M248.941696,219.030396 
	C247.001129,214.815323 248.227890,209.949097 248.606583,204.801666 
	C248.934097,209.152496 248.939743,213.837631 248.941696,219.030396 
z"/>
<path fill="#7D8085" opacity="1.000000" stroke="none" 
	d="
M281.339508,119.093582 
	C281.055664,118.826584 281.135559,118.673264 281.085144,118.295731 
	C283.370270,116.869331 285.702515,116.112694 287.453156,119.560440 
	C285.552856,120.375801 283.640381,119.680847 281.339508,119.093582 
z"/>
<path fill="#A4BCF0" opacity="1.000000" stroke="none" 
	d="
M304.050842,326.101715 
	C300.800110,327.739777 296.949829,326.841461 292.806274,326.395691 
	C296.176819,326.091217 299.880524,326.094269 304.050842,326.101715 
z"/>
<path fill="#FBFFFF" opacity="1.000000" stroke="none" 
	d="
M282.055115,252.632645 
	C279.072235,252.994186 275.948090,252.993027 272.359375,253.009521 
	C275.001190,249.687973 278.588684,252.714539 282.055115,252.632645 
z"/>
<path fill="#7394D8" opacity="1.000000" stroke="none" 
	d="
M276.205963,357.833099 
	C279.278564,356.446503 282.917084,357.028290 286.915070,357.578217 
	C283.754517,357.823639 280.224274,357.847931 276.205963,357.833099 
z"/>
<path fill="#9CA2AA" opacity="1.000000" stroke="none" 
	d="
M269.341553,149.975189 
	C272.237549,147.978561 275.853455,149.422791 279.583374,149.578568 
	C276.478973,149.911804 273.141663,149.918961 269.341553,149.975189 
z"/>
<path fill="#7394D8" opacity="1.000000" stroke="none" 
	d="
M308.192932,357.823608 
	C311.257446,356.428192 314.890289,357.066681 318.882568,357.564270 
	C315.731262,357.801971 312.206635,357.831787 308.192932,357.823608 
z"/>
<path fill="#9FC4FE" opacity="1.000000" stroke="none" 
	d="
M248.941299,295.034210 
	C247.130936,292.496368 248.146439,289.256958 248.608337,285.770233 
	C248.939224,288.484009 248.942047,291.506409 248.941299,295.034210 
z"/>
<path fill="#9CA2AA" opacity="1.000000" stroke="none" 
	d="
M188.539124,149.938782 
	C190.855392,148.139908 193.844131,149.246262 196.946899,149.658051 
	C194.424347,149.995529 191.705505,149.960281 188.539124,149.938782 
z"/>
<path fill="#A4BCF0" opacity="1.000000" stroke="none" 
	d="
M290.093262,326.083740 
	C287.833527,327.750427 284.959442,326.862518 281.806274,326.376099 
	C284.204559,326.225189 286.931061,325.184265 290.093262,326.083740 
z"/>
<path fill="#9FC4FE" opacity="1.000000" stroke="none" 
	d="
M248.944763,231.035126 
	C247.132355,228.494720 248.153046,225.249817 248.605606,221.764633 
	C248.942032,224.483917 248.945435,227.507050 248.944763,231.035126 
z"/>
<path fill="#9FC4FE" opacity="1.000000" stroke="none" 
	d="
M248.942627,263.033966 
	C247.169266,260.490784 248.152115,257.248566 248.605789,253.763840 
	C248.941498,256.483307 248.943939,259.505951 248.942627,263.033966 
z"/>
<path fill="#7394D8" opacity="1.000000" stroke="none" 
	d="
M258.189270,357.830933 
	C260.272919,356.522247 262.930511,356.995361 265.933472,357.580200 
	C263.745819,357.819672 261.207214,357.844513 258.189270,357.830933 
z"/>
<path fill="#7394D8" opacity="1.000000" stroke="none" 
	d="
M290.178894,357.834076 
	C292.264069,356.514343 294.926544,357.001648 297.932648,357.580780 
	C295.741791,357.821625 293.200562,357.846649 290.178894,357.834076 
z"/>
<path fill="#A4BCF0" opacity="1.000000" stroke="none" 
	d="
M342.686279,326.232239 
	C341.757935,327.149750 340.361908,326.991364 338.706238,326.384399 
	C340.613251,326.167358 339.472382,324.008698 340.392090,323.236572 
	C341.731598,323.742828 340.303375,326.063995 342.686279,326.232239 
z"/>
<path fill="#7394D8" opacity="1.000000" stroke="none" 
	d="
M327.332458,355.972839 
	C326.787048,354.134247 328.223511,353.236572 329.733612,352.087036 
	C330.458191,354.026489 328.727295,354.752289 327.332458,355.972839 
z"/>
<path fill="#B0B2B8" opacity="1.000000" stroke="none" 
	d="
M352.415283,234.572891 
	C352.520447,233.667664 352.925934,232.663361 353.563416,231.520081 
	C354.448975,232.765854 355.552185,234.307602 352.415283,234.572891 
z"/>
<path fill="#D4FFFF" opacity="1.000000" stroke="none" 
	d="
M187.361069,234.833557 
	C187.086685,233.354141 187.145432,231.827835 187.577850,230.222839 
	C189.314331,231.771942 187.647263,233.231812 187.361069,234.833557 
z"/>
<path fill="#BABEC0" opacity="1.000000" stroke="none" 
	d="
M288.049866,283.352051 
	C289.391968,282.681580 290.813141,282.370148 292.617554,282.026794 
	C291.666351,283.388855 290.229279,284.491486 288.049866,283.352051 
z"/>
<path fill="#EBECEF" opacity="1.000000" stroke="none" 
	d="
M301.938019,122.566002 
	C301.087708,122.638344 300.314117,122.361496 299.225220,122.044739 
	C299.918488,122.461723 301.296509,117.507401 301.938019,122.566002 
z"/>
<path fill="#C2C4C7" opacity="1.000000" stroke="none" 
	d="
M295.597107,120.613800 
	C295.045380,120.909142 294.353424,120.908157 293.313171,120.942184 
	C292.804596,120.355064 291.454376,119.914452 292.439972,119.164841 
	C293.888885,118.062813 294.192688,120.563622 295.597107,120.613800 
z"/>
<path fill="#A4BCF0" opacity="1.000000" stroke="none" 
	d="
M336.021027,326.100342 
	C334.832184,327.499695 332.931824,326.878052 330.774414,326.380066 
	C332.155792,326.094147 333.836456,326.094818 336.021027,326.100342 
z"/>
<path fill="#7394D8" opacity="1.000000" stroke="none" 
	d="
M331.375946,350.982269 
	C330.592194,349.666809 331.393311,348.831360 332.706421,348.037109 
	C333.362762,349.324982 332.625854,350.159576 331.375946,350.982269 
z"/>
<path fill="#70747E" opacity="1.000000" stroke="none" 
	d="
M269.211975,266.700562 
	C270.165771,267.564117 269.803009,268.922821 269.365814,270.476807 
	C269.189850,269.476929 269.218079,268.268860 269.211975,266.700562 
z"/>
<path fill="#8789C6" opacity="1.000000" stroke="none" 
	d="
M299.264374,281.238708 
	C299.337769,279.884125 300.498108,279.995361 301.678284,279.521912 
	C302.441498,281.721100 300.368927,280.775879 299.264374,281.238708 
z"/>
<path fill="#CAE3EE" opacity="1.000000" stroke="none" 
	d="
M159.755920,358.283936 
	C159.731339,357.003204 160.490448,357.036224 161.589600,357.028809 
	C161.226746,357.759613 161.696274,359.375702 160.148743,359.452332 
	C160.093750,359.455017 160.010208,358.881409 159.755920,358.283936 
z"/>
<path fill="#7394D8" opacity="1.000000" stroke="none" 
	d="
M322.108276,357.803253 
	C322.900177,357.483307 324.092926,357.224335 325.654877,356.952759 
	C325.191833,358.539154 323.698730,357.624542 322.108276,357.803253 
z"/>
<path fill="#A4BCF0" opacity="1.000000" stroke="none" 
	d="
M328.578491,326.002991 
	C327.980713,327.685791 326.431305,326.765900 324.758972,326.413757 
	C325.695465,326.118866 326.913422,326.095795 328.578491,326.002991 
z"/>
<path fill="#A4BCF0" opacity="1.000000" stroke="none" 
	d="
M322.584595,326.004944 
	C322.345276,327.598236 321.066986,326.725616 319.724152,326.383057 
	C320.361633,326.098114 321.253967,326.086395 322.584595,326.004944 
z"/>
<path fill="#A4BCF0" opacity="1.000000" stroke="none" 
	d="
M264.032837,326.080597 
	C263.550049,327.397644 262.254730,326.872955 260.740753,326.379761 
	C261.488281,326.090302 262.506836,326.085632 264.032837,326.080597 
z"/>
<path fill="#9FC4FE" opacity="1.000000" stroke="none" 
	d="
M248.890930,319.987366 
	C247.935059,319.757172 248.001450,318.816772 248.623062,317.637695 
	C248.935715,318.125153 248.931717,318.802307 248.890930,319.987366 
z"/>
<path fill="#7394D8" opacity="1.000000" stroke="none" 
	d="
M319.731659,358.204407 
	C319.901062,357.756805 320.189636,357.691742 320.914886,357.711243 
	C321.047485,358.489777 320.743439,359.183746 320.439392,359.877716 
	C320.243225,359.447449 320.047028,359.017181 319.731659,358.204407 
z"/>
<path fill="#7394D8" opacity="1.000000" stroke="none" 
	d="
M334.365448,346.951660 
	C333.768463,346.227814 334.050781,345.619354 335.110107,345.058167 
	C335.209534,345.578522 334.956390,346.217163 334.365448,346.951660 
z"/>
<path fill="#A4BCF0" opacity="1.000000" stroke="none" 
	d="
M258.020599,326.086853 
	C257.817627,327.080627 256.854309,326.940613 255.655090,326.364166 
	C256.132904,326.062988 256.819183,326.071777 258.020599,326.086853 
z"/>
<path fill="#70747E" opacity="1.000000" stroke="none" 
	d="
M269.206604,274.512787 
	C269.335388,274.526428 269.532227,274.744781 269.647858,274.999939 
	C269.696594,275.107452 269.573975,275.292664 269.374084,275.531921 
	C269.256165,275.325775 269.263824,275.029449 269.206604,274.512787 
z"/>
<path fill="#7394D8" opacity="1.000000" stroke="none" 
	d="
M301.721558,358.214661 
	C301.896759,357.768341 302.198883,357.700348 302.955017,357.735229 
	C303.083038,358.519592 302.757111,359.201172 302.431183,359.882721 
	C302.236938,359.452820 302.042694,359.022919 301.721558,358.214661 
z"/>
<path fill="#70747E" opacity="1.000000" stroke="none" 
	d="
M268.631836,263.783691 
	C269.108154,264.041992 269.196228,264.308990 269.150757,264.976318 
	C268.326477,265.132263 267.331940,265.443298 267.103241,264.420441 
	C267.076752,264.302002 267.844208,264.006042 268.631836,263.783691 
z"/>
<path fill="#7394D8" opacity="1.000000" stroke="none" 
	d="
M255.724670,358.207306 
	C255.900803,357.760162 256.201416,357.692657 256.953400,357.729156 
	C257.079590,358.515533 256.754456,359.197968 256.429321,359.880371 
	C256.235931,359.449219 256.042542,359.018097 255.724670,358.207306 
z"/>
<path fill="#9FC4FE" opacity="1.000000" stroke="none" 
	d="
M248.192215,201.407776 
	C248.048065,201.164001 247.993912,200.684067 248.063934,200.451233 
	C248.738892,200.244354 250.133423,199.098083 249.156891,201.321777 
	C248.709000,201.590500 248.522690,201.621017 248.192215,201.407776 
z"/>
<path fill="#7394D8" opacity="1.000000" stroke="none" 
	d="
M269.720581,358.214691 
	C269.894958,357.768188 270.197021,357.699829 270.953186,357.733948 
	C271.081970,358.518524 270.756714,359.200562 270.431458,359.882629 
	C270.237091,359.452698 270.042694,359.022736 269.720581,358.214691 
z"/>
<path fill="#7394D8" opacity="1.000000" stroke="none" 
	d="
M287.719147,358.215576 
	C287.892975,357.768555 288.195648,357.699219 288.953430,357.733093 
	C289.083038,358.518311 288.757538,359.200378 288.432068,359.882446 
	C288.237366,359.452728 288.042694,359.023010 287.719147,358.215576 
z"/>
<path fill="#7394D8" opacity="1.000000" stroke="none" 
	d="
M266.753479,358.169800 
	C266.890198,357.765411 267.194763,357.696991 267.957153,357.731262 
	C268.040344,358.331879 267.933258,359.424652 266.753479,358.169800 
z"/>
<path fill="#A4BCF0" opacity="1.000000" stroke="none" 
	d="
M344.993042,325.685486 
	C344.870392,326.085175 344.681488,326.174347 344.178528,326.265503 
	C344.019562,325.733093 343.929169,324.906555 344.993042,325.685486 
z"/>
<path fill="#A4BCF0" opacity="1.000000" stroke="none" 
	d="
M281.302185,325.848907 
	C281.232361,326.191040 280.961975,326.286011 280.313385,326.176697 
	C280.123688,325.218536 280.441040,324.870056 281.302185,325.848907 
z"/>
<path fill="#7394D8" opacity="1.000000" stroke="none" 
	d="
M305.754486,358.167755 
	C305.890564,357.762970 306.193451,357.695099 306.952148,357.727173 
	C307.038635,358.330048 306.939301,359.425262 305.754486,358.167755 
z"/>
<path fill="#7394D8" opacity="1.000000" stroke="none" 
	d="
M298.752930,358.171051 
	C298.888824,357.767517 299.193146,357.699402 299.955200,357.732666 
	C300.039734,358.333313 299.933289,359.424286 298.752930,358.171051 
z"/>
<path fill="#7394D8" opacity="1.000000" stroke="none" 
	d="
M273.754303,358.170410 
	C273.890869,357.767487 274.194702,357.700470 274.955414,357.733765 
	C275.039520,358.333374 274.933655,359.424530 273.754303,358.170410 
z"/>
<path fill="#7394D8" opacity="1.000000" stroke="none" 
	d="
M330.276978,352.007660 
	C330.159637,351.722778 330.312286,351.381134 330.761414,351.032532 
	C330.887604,351.334045 330.717285,351.642456 330.276978,352.007660 
z"/>
<path fill="#A4BCF0" opacity="1.000000" stroke="none" 
	d="
M346.423706,326.699951 
	C346.142273,326.860352 345.706543,326.708984 345.115906,326.248962 
	C345.397125,326.089600 345.833252,326.238892 346.423706,326.699951 
z"/>
<path fill="#7394D8" opacity="1.000000" stroke="none" 
	d="
M304.088440,357.827423 
	C304.104218,357.685974 304.534943,357.575653 305.149292,357.628143 
	C305.056396,357.813477 304.779907,357.835999 304.088440,357.827423 
z"/>
<path fill="#7394D8" opacity="1.000000" stroke="none" 
	d="
M272.085571,357.825134 
	C272.101715,357.685608 272.528137,357.577393 273.135498,357.630829 
	C273.042908,357.813812 272.769409,357.835114 272.085571,357.825134 
z"/>
<path fill="#7394D8" opacity="1.000000" stroke="none" 
	d="
M333.288696,348.013733 
	C333.154755,347.708313 333.298523,347.359985 333.746765,347.015930 
	C333.889618,347.337036 333.728027,347.653900 333.288696,348.013733 
z"/>
<path fill="#7394D8" opacity="1.000000" stroke="none" 
	d="
M326.197510,356.936890 
	C326.148071,356.741425 326.357880,356.465271 326.809326,356.084656 
	C326.852875,356.272186 326.654816,356.564178 326.197510,356.936890 
z"/>
<path fill="#9FC4FE" opacity="1.000000" stroke="none" 
	d="
M249.191986,233.272827 
	C248.762512,233.166641 248.612457,232.833267 248.687683,231.999786 
	C249.232010,231.966995 250.381134,232.134430 249.191986,233.272827 
z"/>
<path fill="#70747E" opacity="1.000000" stroke="none" 
	d="
M268.688995,271.759521 
	C269.112427,271.906525 269.208099,272.202972 269.159424,272.944092 
	C268.404877,273.068787 267.598969,272.835297 268.688995,271.759521 
z"/>
<path fill="#9FA2A7" opacity="1.000000" stroke="none" 
	d="
M320.329956,271.997070 
	C320.226562,271.738098 320.476288,271.420959 320.896759,270.843933 
	C320.939331,271.035675 320.811218,271.487305 320.329956,271.997070 
z"/>
<path fill="#9CA2AA" opacity="1.000000" stroke="none" 
	d="
M199.674652,150.281586 
	C199.792694,149.811462 200.145737,149.627274 201.029938,149.717163 
	C201.085434,150.397781 200.822159,151.412872 199.674652,150.281586 
z"/>
<path fill="#9FC4FE" opacity="1.000000" stroke="none" 
	d="
M249.190369,268.272614 
	C248.764145,268.166290 248.618042,267.833069 248.691177,266.999939 
	C249.229996,266.967102 250.381821,267.132629 249.190369,268.272614 
z"/>
<path fill="#9FC4FE" opacity="1.000000" stroke="none" 
	d="
M249.190674,265.272888 
	C248.763611,265.166595 248.616455,264.833282 248.690338,263.999908 
	C249.230713,263.967102 250.381805,264.133453 249.190674,265.272888 
z"/>
<path fill="#9FC4FE" opacity="1.000000" stroke="none" 
	d="
M249.191437,253.272736 
	C248.763229,253.166580 248.614716,252.833313 248.688950,252.000031 
	C249.231110,251.967087 250.381287,252.133514 249.191437,253.272736 
z"/>
<path fill="#9CA2AA" opacity="1.000000" stroke="none" 
	d="
M202.673355,150.277893 
	C202.792053,149.808395 203.145554,149.625885 204.029785,149.717102 
	C204.084793,150.398270 203.820618,151.414581 202.673355,150.277893 
z"/>
<path fill="#9FC4FE" opacity="1.000000" stroke="none" 
	d="
M249.191711,236.272720 
	C248.762924,236.166550 248.613708,235.833267 248.688385,234.999939 
	C249.231552,234.967041 250.381149,235.133911 249.191711,236.272720 
z"/>
<path fill="#9FA2A7" opacity="1.000000" stroke="none" 
	d="
M319.396179,273.035431 
	C318.596191,272.546173 318.677216,272.164917 319.676880,271.948914 
	C320.349579,272.461456 320.266479,272.811432 319.396179,273.035431 
z"/>
<path fill="#9FC4FE" opacity="1.000000" stroke="none" 
	d="
M249.191315,221.272568 
	C248.763840,221.166443 248.616196,220.833328 248.689667,220.000198 
	C249.230545,219.967102 250.381104,220.132782 249.191315,221.272568 
z"/>
<path fill="#9CA2AA" opacity="1.000000" stroke="none" 
	d="
M229.674591,150.277130 
	C229.794540,149.810699 230.148209,149.632019 231.031250,149.724014 
	C231.084305,150.400513 230.817917,151.414658 229.674591,150.277130 
z"/>
<path fill="#9FC4FE" opacity="1.000000" stroke="none" 
	d="
M249.186462,204.272232 
	C248.767212,204.165817 248.629684,203.833176 248.697815,203.001099 
	C249.224777,202.967789 250.383606,203.127670 249.186462,204.272232 
z"/>
<path fill="#9CA2AA" opacity="1.000000" stroke="none" 
	d="
M231.674255,150.280762 
	C231.792068,149.813324 232.144852,149.631973 233.028503,149.720367 
	C233.084793,150.398254 232.822388,151.413498 231.674255,150.280762 
z"/>
<path fill="#9CA2AA" opacity="1.000000" stroke="none" 
	d="
M234.674133,150.277435 
	C234.793091,149.809158 235.146255,149.628326 236.029572,149.718964 
	C236.084579,150.398438 235.821045,151.414719 234.674133,150.277435 
z"/>
<path fill="#9CA2AA" opacity="1.000000" stroke="none" 
	d="
M266.675354,150.276840 
	C266.794464,149.810730 267.146851,149.632675 268.028259,149.721924 
	C268.083862,150.399124 267.821930,151.414749 266.675354,150.276840 
z"/>
<path fill="#9CA2AA" opacity="1.000000" stroke="none" 
	d="
M263.674255,150.280792 
	C263.791718,149.813766 264.144104,149.632614 265.027008,149.720383 
	C265.084198,150.399048 264.822571,151.413193 263.674255,150.280792 
z"/>
<path fill="#A4BCF0" opacity="1.000000" stroke="none" 
	d="
M255.281601,325.801270 
	C255.174896,326.216614 254.841736,326.346710 254.005310,326.289459 
	C253.960648,325.750153 254.120499,324.606567 255.281601,325.801270 
z"/>
<path fill="#A4BCF0" opacity="1.000000" stroke="none" 
	d="
M330.297424,325.861725 
	C330.223969,326.217255 329.954224,326.320282 329.312012,326.202148 
	C329.122864,325.220001 329.437195,324.868439 330.297424,325.861725 
z"/>
<path fill="#A4BCF0" opacity="1.000000" stroke="none" 
	d="
M324.293427,325.893616 
	C324.211761,326.253784 323.940948,326.353058 323.306213,326.218384 
	C323.129608,325.206329 323.452484,324.876160 324.293427,325.893616 
z"/>
<path fill="#A4BCF0" opacity="1.000000" stroke="none" 
	d="
M319.268921,325.827881 
	C319.154816,326.242645 318.827576,326.358398 318.009766,326.298615 
	C317.968018,325.761139 318.106171,324.595764 319.268921,325.827881 
z"/>
<path fill="#A4BCF0" opacity="1.000000" stroke="none" 
	d="
M305.987183,325.674286 
	C305.812805,326.138672 305.567566,326.292053 304.918884,326.285095 
	C304.917938,325.752441 305.058044,324.897339 305.987183,325.674286 
z"/>
<path fill="#A4BCF0" opacity="1.000000" stroke="none" 
	d="
M292.270203,325.815430 
	C292.157532,326.241150 291.828857,326.372528 291.006805,326.306946 
	C290.965485,325.752716 291.114075,324.601532 292.270203,325.815430 
z"/>
<path fill="#9CA2AA" opacity="1.000000" stroke="none" 
	d="
M261.673615,150.277496 
	C261.793152,149.809448 262.147034,149.628586 263.030701,149.721390 
	C263.084198,150.401154 262.817108,151.414368 261.673615,150.277496 
z"/>
<path fill="#A4BCF0" opacity="1.000000" stroke="none" 
	d="
M265.988953,325.675262 
	C265.811310,326.131714 265.563751,326.278198 264.915802,326.263489 
	C264.920471,325.736938 265.071228,324.887329 265.988953,325.675262 
z"/>
<path fill="#A4BCF0" opacity="1.000000" stroke="none" 
	d="
M260.272888,325.820160 
	C260.160156,326.235107 259.830261,326.354492 259.004944,326.294983 
	C258.964142,325.759949 259.110718,324.598633 260.272888,325.820160 
z"/>
<path fill="#A4BCF0" opacity="1.000000" stroke="none" 
	d="
M338.268921,325.828735 
	C338.154602,326.241486 337.827362,326.355011 337.009796,326.295715 
	C336.968201,325.760773 337.106720,324.595520 338.268921,325.828735 
z"/>
<path fill="#9FC4FE" opacity="1.000000" stroke="none" 
	d="
M249.189789,317.272858 
	C248.764999,317.166931 248.620514,316.833862 248.691360,316.000427 
	C249.227051,315.966949 250.381393,316.129883 249.189789,317.272858 
z"/>
<path fill="#9CA2AA" opacity="1.000000" stroke="none" 
	d="
M197.673615,150.277512 
	C197.793228,149.807892 198.147141,149.625397 199.030655,149.719330 
	C199.084000,150.401871 198.816467,151.414230 197.673615,150.277512 
z"/>
<path fill="#9FC4FE" opacity="1.000000" stroke="none" 
	d="
M249.190430,300.272888 
	C248.764633,300.166687 248.618866,299.833435 248.691620,299.000092 
	C249.229797,298.967102 250.381805,299.132507 249.190430,300.272888 
z"/>
<path fill="#9FC4FE" opacity="1.000000" stroke="none" 
	d="
M249.190140,297.273041 
	C248.763351,297.166809 248.616623,296.833435 248.690002,295.999756 
	C249.229324,295.966980 250.381958,296.132568 249.190140,297.273041 
z"/>
<path fill="#9FC4FE" opacity="1.000000" stroke="none" 
	d="
M249.189941,285.272675 
	C248.764755,285.166351 248.619843,284.833221 248.692261,284.000153 
	C249.229462,283.967194 250.382034,284.132111 249.189941,285.272675 
z"/>
<path fill="#9FA2A7" opacity="1.000000" stroke="none" 
	d="
M316.819336,274.273010 
	C316.930908,273.805725 317.165466,273.650940 317.716797,273.774323 
	C318.073486,275.056610 317.699982,275.214233 316.819336,274.273010 
z"/>
<path fill="#9FA2A7" opacity="1.000000" stroke="none" 
	d="
M318.332947,274.031677 
	C317.597076,273.501648 317.672241,273.051910 318.657684,272.865723 
	C318.902588,273.368896 318.761566,273.696503 318.332947,274.031677 
z"/>
</svg>